HIERARCHY
ROOT Hips
{
	OFFSET -3.958830 18.904000 13.208200
	CHANNELS 6 Xposition Yposition Zposition Zrotation Yrotation Xrotation 
	JOINT LHipJoint
	{
		OFFSET 0.000000 0.000000 0.000000
		CHANNELS 3 Zrotation Yrotation Xrotation
		JOINT LeftUpLeg
		{
			OFFSET 1.800000 -1.400000 0.085000
			CHANNELS 3 Zrotation Yrotation Xrotation
			JOINT LeftLeg
			{
				OFFSET 2.215000 -6.000000 0.000000
				CHANNELS 3 Zrotation Yrotation Xrotation
				JOINT LeftFoot
				{
					OFFSET 2.500000 -6.900000 0.000000
					CHANNELS 3 Zrotation Yrotation Xrotation
					JOINT LeftToeBase
					{
						OFFSET 0.200000 -0.500000 1.950000
						CHANNELS 3 Zrotation Yrotation Xrotation
						End Site
						{
							OFFSET 0.000000 0.000000 0.000000
						}
					}
				}
			}
		}
	}
	JOINT RHipJoint
	{
		OFFSET 0.000000 0.000000 0.000000
		CHANNELS 3 Zrotation Yrotation Xrotation
		JOINT RightUpLeg
		{
			OFFSET -1.800000 -1.400000 0.085000
			CHANNELS 3 Zrotation Yrotation Xrotation
			JOINT RightLeg
			{
				OFFSET -2.215000 -6.000000 0.000000
				CHANNELS 3 Zrotation Yrotation Xrotation
				JOINT RightFoot
				{
					OFFSET -2.500000 -6.900000 0.000000
					CHANNELS 3 Zrotation Yrotation Xrotation
					JOINT RightToeBase
					{
						OFFSET -0.200000 -0.500000 1.950000
						CHANNELS 3 Zrotation Yrotation Xrotation
						End Site
						{
							OFFSET 0.000000 0.000000 0.000000
						}
					}
				}
			}
		}
	}
	JOINT LowerBack
	{
		OFFSET 0.000000 0.000000 0.000000
		CHANNELS 3 Zrotation Yrotation Xrotation
		JOINT Spine
		{
			OFFSET -0.087000 1.940000 -0.288900
			CHANNELS 3 Zrotation Yrotation Xrotation
			JOINT Spine1
			{
				OFFSET 0.000000 1.950000 0.060000
				CHANNELS 3 Zrotation Yrotation Xrotation
				JOINT Neck
				{
					OFFSET 0.000000 0.000000 0.000000
					CHANNELS 3 Zrotation Yrotation Xrotation
					JOINT Neck1
					{
						OFFSET 0.000000 1.600000 0.340000
						CHANNELS 3 Zrotation Yrotation Xrotation
						JOINT Head
						{
							OFFSET 0.000000 1.667000 -0.240000
							CHANNELS 3 Zrotation Yrotation Xrotation
							End Site
							{
								OFFSET 0.000000 0.000000 0.000000
							}
						}
					}
				}
				JOINT LeftShoulder
				{
					OFFSET 0.000000 0.000000 0.000000
					CHANNELS 3 Zrotation Yrotation Xrotation
					JOINT LeftArm
					{
						OFFSET 2.700000 1.550000 -0.730000
						CHANNELS 3 Zrotation Yrotation Xrotation
						JOINT LeftForeArm
						{
							OFFSET 5.450000 0.000000 0.000000
							CHANNELS 3 Zrotation Yrotation Xrotation
							JOINT LeftHand
							{
								OFFSET 3.450000 0.000000 0.000000
								CHANNELS 3 Zrotation Yrotation Xrotation
								JOINT LeftHandIndex1
								{
									OFFSET 0.750000 0.000000 0.000000
									CHANNELS 3 Zrotation Yrotation Xrotation
									End Site
									{
										OFFSET 0.000000 0.000000 0.000000
									}
								}
							}
						}
					}
				}
				JOINT RightShoulder
				{
					OFFSET 0.000000 0.000000 0.000000
					CHANNELS 3 Zrotation Yrotation Xrotation
					JOINT RightArm
					{
						OFFSET -2.700000 1.550000 -0.730000
						CHANNELS 3 Zrotation Yrotation Xrotation
						JOINT RightForeArm
						{
							OFFSET -5.450000 0.000000 0.000000
							CHANNELS 3 Zrotation Yrotation Xrotation
							JOINT RightHand
							{
								OFFSET -3.450000 0.000000 0.000000
								CHANNELS 3 Zrotation Yrotation Xrotation
								JOINT RightHandIndex1
								{
									OFFSET -0.750000 0.000000 0.000000
									CHANNELS 3 Zrotation Yrotation Xrotation
									End Site
									{
										OFFSET 0.000000 0.000000 0.000000
									}
								}
							}
						}
					}
				}
			}
		}
	}
}
MOTION
Frames: 8
Frame Time: 0.016667
0.126200 17.271980 -0.997560 -2.351736 -3.973472 3.355872 -15.215147 13.698399 3.154233 1.673345 -1.866166 -13.346976 -10.173689 7.272592 18.258630 -0.591199 5.518596 3.053017 -0.119510 -0.586720 -0.274190 18.109378 -10.721973 2.717879 -5.842520 1.872627 -12.992192 12.493632 -7.956245 18.628512 -0.464055 -4.478446 2.814683 -0.234290 1.075490 0.746950 -3.210278 -2.753969 -7.496865 7.409776 -0.061821 10.665860 -1.411457 0.733479 3.623091 2.176554 -4.058503 -11.906959 -8.314118 5.773138 27.041712 -3.275510 3.639150 -10.253790 -12.175935 -9.961648 4.532402 15.086857 8.584072 1.589378 11.860564 -6.195315 -1.279727 -4.331233 2.650596 0.846970 0.520280 -0.007120 0.421370 8.570567 13.293451 8.376429 -14.227003 -5.239819 -1.541672 -10.602145 11.494830 0.068115 2.044213 -1.145925 -0.509900 0.463970 0.398840 0.030930 
0.127510 17.244400 -1.001680 -2.243289 -3.969168 3.337923 -15.216672 13.641416 3.173950 2.118358 -2.114330 -14.164909 -10.987019 7.823635 19.754855 -0.547177 5.769104 2.951233 -0.101540 -0.553710 -0.276190 18.112400 -10.688289 2.708560 -6.521146 2.148974 -13.831277 13.325515 -8.473296 20.144662 -0.491996 -4.694619 2.725268 -0.210890 1.080310 0.752540 -3.215923 -2.727342 -7.490586 7.248272 -0.082476 10.777397 -1.459282 0.720596 3.759178 2.095015 -4.037244 -11.742827 -8.087397 5.839452 26.110310 -3.171720 3.675640 -10.411150 -12.628092 -9.903233 4.460339 14.717815 8.433480 1.537208 12.543580 -6.264090 -1.299888 -4.337074 2.679049 0.826060 0.530690 -0.011060 0.431720 9.175864 13.175351 8.266758 -13.978570 -5.031818 -1.641043 -11.736990 11.256941 -0.070845 2.045815 -1.179358 -0.500670 0.459390 0.387890 0.040530 
0.128710 17.214450 -1.004530 -2.162820 -3.936003 3.375489 -15.219164 13.565323 3.195071 2.598972 -2.364116 -14.983942 -11.810594 8.387138 21.137389 -0.504488 6.037169 2.846657 -0.087710 -0.524670 -0.281860 18.119944 -10.641128 2.706220 -7.197621 2.425952 -14.681969 14.199348 -9.017242 21.561783 -0.519835 -4.930609 2.631737 -0.185630 1.094080 0.756800 -3.228317 -2.689548 -7.483527 7.145394 -0.110204 10.764989 -1.524717 0.693781 3.970806 2.016333 -4.010264 -11.577674 -7.841336 5.927351 25.112939 -3.122630 3.714680 -10.381060 -12.997013 -9.825665 4.403142 14.233724 8.209730 1.482089 13.248286 -6.304723 -1.327963 -4.353856 2.701517 0.800250 0.548860 -0.022030 0.442070 9.690783 13.028087 8.141895 -13.676827 -4.818493 -1.712043 -12.662002 11.166818 -0.205944 2.040342 -1.213385 -0.496230 0.460270 0.381090 0.050430 
0.129060 17.183940 -1.006890 -2.112500 -3.895289 3.431696 -15.223294 13.481923 3.225120 3.150832 -2.609325 -15.787257 -12.699986 8.985864 22.420877 -0.457448 6.322562 2.736183 -0.075000 -0.500400 -0.284960 18.128292 -10.583094 2.708525 -7.809969 2.683515 -15.472336 15.004256 -9.540918 22.828329 -0.548647 -5.156995 2.544658 -0.164340 1.104460 0.758380 -3.239758 -2.659476 -7.487421 7.085360 -0.145515 10.714533 -1.592212 0.663753 4.182933 1.956075 -4.017242 -11.470870 -7.702622 6.016059 24.303135 -3.087940 3.740910 -10.325340 -13.251277 -9.751478 4.376895 13.609534 7.938148 1.407265 13.900607 -6.372416 -1.359152 -4.368149 2.717771 0.779020 0.563500 -0.032660 0.450120 10.060969 12.916933 8.063692 -13.268218 -4.622653 -1.779667 -13.413804 11.160675 -0.322093 2.033782 -1.241167 -0.493060 0.461280 0.375040 0.057090 
0.129880 17.152490 -1.008340 -2.113536 -3.814027 3.492383 -15.226791 13.389685 3.257994 3.731655 -2.856414 -16.591296 -13.533769 9.591630 23.690924 -0.409806 6.616934 2.622821 -0.064960 -0.478130 -0.289410 18.139927 -10.516269 2.718412 -8.387400 2.924887 -16.213769 15.859829 -10.090421 23.990042 -0.581484 -5.390977 2.455598 -0.143530 1.114670 0.757730 -3.258026 -2.628292 -7.498244 7.126457 -0.210565 10.635202 -1.689401 0.613582 4.404995 1.904032 -4.021758 -11.373611 -7.584419 6.091929 23.605090 -3.043780 3.744900 -10.285140 -13.453916 -9.686772 4.354015 12.976060 7.631451 1.334705 14.403868 -6.482381 -1.390131 -4.380058 2.729133 0.760350 0.576630 -0.042210 0.457240 10.356054 12.801622 7.988588 -12.868696 -4.428388 -1.848784 -14.122131 11.147134 -0.432044 2.027958 -1.264673 -0.492520 0.464980 0.370260 0.063580 
0.130820 17.120610 -1.009320 -2.104780 -3.741743 3.564783 -15.233630 13.291261 3.299062 4.303821 -3.100537 -17.365009 -14.399276 10.212508 24.867654 -0.360736 6.922438 2.508736 -0.053230 -0.459050 -0.290570 18.150380 -10.440634 2.730744 -8.964734 3.155624 -16.938854 16.689310 -10.644308 25.079585 -0.617574 -5.626936 2.367115 -0.124840 1.126180 0.760150 -3.269843 -2.603676 -7.516451 7.133633 -0.265940 10.543339 -1.752487 0.564589 4.608314 1.861792 -4.019327 -11.289740 -7.472748 6.180702 22.989845 -3.032260 3.764650 -10.202320 -13.627761 -9.631053 4.341537 12.339936 7.359611 1.270725 14.869797 -6.625154 -1.427625 -4.391656 2.740475 0.745850 0.590270 -0.051410 0.465680 10.608006 12.701067 7.916694 -12.514659 -4.229744 -1.902551 -14.649919 11.129888 -0.525857 2.020029 -1.287228 -0.492970 0.468130 0.365120 0.068200 
0.131810 17.087960 -1.009600 -2.158250 -3.669496 3.656172 -15.239213 13.186978 3.343878 4.936814 -3.327409 -18.130254 -15.264365 10.842237 25.958186 -0.305250 7.231348 2.395055 -0.045770 -0.445650 -0.292520 18.163447 -10.357368 2.751149 -9.487998 3.387514 -17.629769 17.561187 -11.216736 26.088417 -0.657893 -5.865612 2.277486 -0.111700 1.137750 0.765190 -3.287475 -2.579209 -7.544083 7.256384 -0.334696 10.463605 -1.845734 0.518122 4.774946 1.838801 -4.040074 -11.238693 -7.419719 6.283894 22.457342 -3.076040 3.816120 -10.066860 -13.759708 -9.583740 4.341454 11.680076 7.106415 1.200989 15.313353 -6.804991 -1.467327 -4.404365 2.751245 0.731030 0.603500 -0.058860 0.472360 10.779300 12.626614 7.872153 -12.115536 -4.065374 -1.954735 -15.126451 11.197668 -0.611051 2.013630 -1.306965 -0.491210 0.469540 0.362220 0.073620 
0.132930 17.055700 -1.009390 -2.187352 -3.577813 3.741606 -15.248978 13.084290 3.395070 5.559150 -3.542179 -18.844930 -16.136539 11.469937 26.940393 -0.245867 7.533619 2.284326 -0.040040 -0.436090 -0.292380 18.172507 -10.266509 2.775216 -10.042499 3.599621 -18.287092 18.455614 -11.803152 27.012661 -0.700998 -6.102919 2.188213 -0.103380 1.144720 0.770460 -3.293342 -2.571291 -7.582517 7.306758 -0.390061 10.413703 -1.874538 0.472251 4.881471 1.827156 -4.060363 -11.209559 -7.393410 6.344482 22.061661 -3.170600 3.864360 -9.935690 -13.906096 -9.569072 4.347901 11.059211 6.877143 1.121728 15.748404 -7.022265 -1.507937 -4.413001 2.761794 0.719330 0.612870 -0.063430 0.476720 10.950039 12.598911 7.851947 -11.795391 -3.965625 -1.994539 -15.476584 11.239686 -0.674141 2.010798 -1.323145 -0.488000 0.467680 0.359160 0.077780 
